<svg xmlns="http://www.w3.org/2000/svg" width="202" height="33" viewBox="0 0 202 33" xmlns:xlink="http://www.w3.org/1999/xlink">
  <defs>
    <polygon id="a" points="202 0 0 0 0 33 202 33 202 0"/>
  </defs>
  <g fill="none" fill-rule="evenodd">
    <mask id="b" fill="white">
      <use xlink:href="#a"/>
    </mask>
    <g transform="translate(0 3)" mask="url(#b)">
      <rect width="202" height="27"/>
      <path fill="#0068B6" d="M200.78867,12.8872094 L200.78867,9.20835414 C198.88453,8.57814211 196.89462,8.24522933 194.889042,8.2213442 C191.176539,8.2213442 187.834164,10.161716 187.935108,13.8293552 C188.047269,17.8110431 190.907354,18.3157641 193.229071,18.8317011 C196.694822,19.5943906 197.412647,19.9533033 197.435079,20.9851773 C197.435079,22.7348768 195.135794,22.6339326 193.419743,22.6339326 C191.641122,22.6104445 189.878717,22.2920745 188.204293,21.6917867 L188.204293,25.4379381 C190.046769,26.1245625 192.003692,26.4519854 193.969328,26.402516 C198.646409,26.402516 202.100944,24.7313287 201.988784,20.9963934 C201.899056,17.6876669 200.396109,16.5099845 195.539571,15.4781105 C192.993534,14.9285254 192.466381,14.7602851 192.432733,13.705979 C192.399085,12.6516729 193.554335,12.0572238 195.315251,12.0684398 C197.1662,12.1181203 199.004207,12.3930682 200.78867,12.8872094 L200.78867,12.8872094 Z"/>
      <polygon fill="#0068B6" points="185.602 8.603 180.061 8.603 173.623 15.422 173.534 15.422 173.534 1.604 169.059 1.604 169.059 25.999 173.534 25.999 173.534 17.777 173.612 17.777 180.252 25.999 185.95 25.999 178.043 16.588"/>
      <path fill="#0068B6" d="M161.62232 8.25499227C156.617215 8.25499227 152.559775 12.3124323 152.559775 17.3175381L152.559775 25.9875232 156.788215 25.9875232 156.788215 17.3287541C156.788208 14.657131 158.950704 12.4896169 161.62232 12.4834326 162.536216 12.4832608 163.431173 12.7439655 164.202006 13.2349061L166.108729 9.4887547C164.747761 8.69016286 163.200259 8.26459997 161.62232 8.25499227L161.62232 8.25499227zM140.311878 12.4497845C142.987876 12.4497845 145.1572 14.6191089 145.1572 17.2951061 145.1572 19.9711033 142.987876 22.1404276 140.311878 22.1404276 137.635881 22.1404276 135.466557 19.9711033 135.466557 17.2951061 135.472724 14.6216676 137.63844 12.4559517 140.311878 12.4497845L140.311878 12.4497845zM140.311878 8.2213442C135.308237 8.22753683 131.256425 12.2877149 131.260552 17.2913582 131.264679 22.2950014 135.323184 26.3484899 140.326829 26.3464282 145.330473 26.3443665 149.385636 22.287535 149.38564 17.2838901 149.382667 14.8803529 148.425014 12.5764395 146.723353 10.8789855 145.021692 9.18153147 142.715416 8.22958371 140.311878 8.23256022L140.311878 8.2213442zM115.300149 1.12160221L119.909934 1.12160221C119.909934 1.12160221 121.89517 10.0944199 123.274741 16.3417442 124.777688 10.2738762 127.267645 1.12160221 127.267645 1.12160221L132.090534 1.12160221C132.090534 1.12160221 126.359147 21.1982818 125.102952 25.0565934 124.853527 25.8521551 124.108287 26.3870817 123.274741 26.368868 122.42621 26.412868 121.663117 25.8557637 121.446529 25.0341613 120.201551 20.3570801 118.160235 12.0235757 117.644298 9.42145856L117.55457 9.42145856C117.038633 12.0235757 114.997317 20.3570801 113.752338 25.0341613 113.53575 25.8557637 112.772657 26.412868 111.924127 26.368868 111.093518 26.3858142 110.352189 25.8504097 110.107131 25.0565934 108.83972 21.1870657 103.108333 1.12160221 103.108333 1.12160221L107.931223 1.12160221C107.931223 1.12160221 110.409964 10.2738762 111.968991 16.3417442 113.314913 10.0944199 115.300149 1.12160221 115.300149 1.12160221L119.909934 1.12160221M95.4477901 1.12160221L95.4477901 9.63456298C91.9500746 7.4288183 87.4028311 7.87043458 84.3949077 10.7079897 81.3869842 13.5455449 80.6812808 18.0593494 82.6795703 21.6795927 84.6778598 25.2998361 88.8733158 27.1083154 92.8773707 26.0754228 96.8814256 25.0425301 99.6785304 21.4302382 99.6762304 17.2951061L99.6762304 1.12160221 95.4477901 1.12160221zM90.5912525 22.1404276C87.9167241 22.1342366 85.7530277 19.9621784 85.7571527 17.287646 85.7612777 14.6131136 87.9316637 12.44774 90.6061985 12.4497989 93.2807333 12.4518579 95.4477829 14.6205705 95.4477901 17.2951061 95.4477935 18.5821109 94.9357664 19.8162402 94.0246651 20.7252374 93.1135637 21.6342345 91.8782539 22.1434068 90.5912525 22.1404276zM69.0004099 14.1434039C69.1574343 15.0294696 71.5352309 23.6321586 72.1184641 25.1911856 72.409805 25.8787074 73.0878677 26.3218856 73.8345155 26.3127878 74.5800318 26.3087512 75.254812 25.8705822 75.5617829 25.1911856 76.4702807 23.0489254 81.3604663 8.97281768 81.3604663 8.97281768L77.0871619 8.97281768C77.0871619 8.97281768 74.3055884 17.6876669 73.9354597 19.291558L73.8681635 19.291558C73.5428989 17.7213149 70.8847017 8.97281768 70.8847017 8.97281768L67.0488221 8.97281768C67.0488221 8.97281768 64.3906249 17.7213149 64.0429282 19.269126L64.0429282 19.269126C63.6279354 17.6764508 60.8575779 8.97281768 60.8575779 8.97281768L56.5730575 8.97281768C56.5730575 8.97281768 61.4744591 23.0601414 62.3717409 25.2136177 62.6764675 25.8949381 63.3526475 26.3340161 64.0990083 26.3352199 64.8456561 26.3443176 65.5237187 25.9011394 65.8150597 25.2136177 66.3870768 23.6545906 68.7648735 15.0406856 68.9331138 14.1658359L69.0004099 14.1434039zM47.3647033 12.4497845C50.0407005 12.4497845 52.2100249 14.6191089 52.2100249 17.2951061 52.2100249 19.9711033 50.0407005 22.1404276 47.3647033 22.1404276 44.6887061 22.1404276 42.5193818 19.9711033 42.5193818 17.2951061 42.5255489 14.6216676 44.6912648 12.4559517 47.3647033 12.4497845L47.3647033 12.4497845zM47.3647033 8.2213442C42.3595974 8.2213442 38.3021575 12.2787842 38.3021575 17.2838901 38.3021575 22.2889959 42.3595974 26.3464359 47.3647033 26.3464359 52.3698092 26.3464359 56.4272492 22.2889959 56.4272492 17.2838901 56.4272492 12.2787842 52.3698092 8.2213442 47.3647033 8.2213442L47.3647033 8.2213442zM33.8381807 8.25499227C28.8356428 8.26735952 24.7868355 12.326201 24.7868508 17.3287541L24.7868508 25.9987392 29.0040751 25.9987392 29.0040751 17.3287541C29.0040751 14.6527569 31.1733995 12.4834326 33.8493967 12.4834326 34.7632927 12.4832608 35.6582489 12.7439655 36.4290818 13.2349061L38.4143177 9.49997072C37.0281979 8.68208318 35.447609 8.25207001 33.8381807 8.25499227L33.8381807 8.25499227zM13.3016442 21.837595C9.39778933 21.8556649 5.9646212 19.2591568 4.91909856 15.4978682 3.87357592 11.7365796 5.47429237 7.74080621 8.82746487 5.7416455 12.1806374 3.74248479 16.4569114 4.23439774 19.268568 6.94271768L22.4539182 3.7573674C18.1952768-.380463441 11.6940976-1.1561418 6.58146476 1.86356964 1.46883196 4.88328107-.990249837 10.9512234.577682944 16.6782871 2.14561573 22.4053507 7.3526138 26.3745041 13.2904282 26.368868 16.7138235 26.3490576 19.9970768 25.0068218 22.4539182 22.6227166L19.268568 19.4373663C17.6589965 20.9699316 15.5241198 21.8286978 13.3016442 21.837595L13.3016442 21.837595z"/>
    </g>
    <g fill="#8F8F8F" transform="translate(180 3)" mask="url(#b)">
      <path d="M2.82060221,0.123376243 C3.084324,0.122247978 3.3474476,0.148560338 3.60572376,0.201888398 C3.82156357,0.244552355 4.02718543,0.328324224 4.21138895,0.448640884 C4.38031707,0.560038335 4.51596218,0.715061316 4.60394972,0.897281768 C4.70196053,1.11556047 4.74803078,1.35359007 4.73854199,1.59267514 C4.74934886,1.8543604 4.67881972,2.11296724 4.53665359,2.3329326 C4.38072997,2.54419843 4.17180456,2.71056496 3.9309884,2.81522155 C4.26394508,2.8944825 4.55802339,3.08921003 4.76097403,3.36480663 C4.94678305,3.64308724 5.04090476,3.97251324 5.03015856,4.30695249 C5.03667141,4.57593815 4.97493197,4.84218947 4.85070221,5.08085801 C4.73747382,5.29128502 4.57604993,5.47192605 4.37962928,5.60801105 C4.17132928,5.74872235 3.93966241,5.85126343 3.69545193,5.91084365 C3.43907285,5.9775904 3.17525544,6.01150978 2.91033039,6.01178785 L0.00538066298,6.01178785 L0.00538066298,0.123376243 L2.82060221,0.123376243 Z M2.65236188,2.50117293 C2.85981247,2.50932014 3.06435557,2.45031732 3.23559503,2.3329326 C3.3958377,2.20238775 3.4800545,2.00026742 3.45991547,1.79456354 C3.4634747,1.67748183 3.43641198,1.56149873 3.38140331,1.45808287 C3.33265189,1.37449607 3.26310172,1.3049459 3.17951492,1.25619448 C3.10505577,1.19832444 3.02172977,1.15287389 2.93276243,1.12160221 L2.59628177,1.12160221 L1.36251934,1.12160221 L1.36251934,2.50117293 L2.65236188,2.50117293 Z M2.73087403,5.00234586 C2.85392461,5.01502338 2.97795219,5.01502338 3.10100276,5.00234586 C3.21239826,4.98093907 3.3188726,4.93910987 3.41505138,4.87896961 C3.50509293,4.82001223 3.57847417,4.73890665 3.6281558,4.64343315 C3.68547638,4.52477249 3.71245335,4.39374147 3.70666796,4.2620884 C3.73305411,4.01599464 3.63657073,3.77268872 3.44869945,3.61155912 C3.2442071,3.47319356 2.9997723,3.40617111 2.75330608,3.42088674 L1.31765525,3.42088674 L1.31765525,5.00234586 L2.73087403,5.00234586 Z"/>
      <polygon points="10.414 .123 10.414 1.245 7.24 1.245 7.24 2.468 10.145 2.468 10.145 3.477 7.24 3.477 7.24 4.924 10.481 4.924 10.481 6.045 5.927 6.045 5.927 .123"/>
      <polygon points="10.975 1.211 10.975 .09 15.898 .09 15.898 1.211 14.149 1.211 14.149 6.012 12.825 6.012 12.825 1.211"/>
      <path d="M18.960458,0.123376243 L21.2036624,6.01178785 L19.8353077,6.01178785 L19.3866669,4.69951326 L17.1434624,4.69951326 L16.6723895,6.01178785 L15.3488989,6.01178785 L17.5921033,0.123376243 L18.960458,0.123376243 Z M19.0389702,3.73493536 L18.2874967,1.57024309 L18.2874967,1.57024309 L17.5135912,3.73493536 L19.0389702,3.73493536 Z"/>
    </g>
  </g>
</svg>
