<svg id="Layer_1" data-name="Layer 1" xmlns="http://www.w3.org/2000/svg" viewBox="0 0 120.52 163.97"><defs><style>.cls-1{fill:#131c4e;}.cls-2{fill:none;stroke:#131c4e;stroke-linecap:round;stroke-linejoin:round;stroke-width:0.22px;}.cls-3{fill:#f5426c;}</style></defs><title>Untitled-1</title><path class="cls-1" d="M114.06,97.06a14.71,14.71,0,1,1-19.55-7.14,14.71,14.71,0,0,1,19.55,7.14" transform="translate(-40.48 -43.03)"/><path class="cls-1" d="M141.41,58.86a60.35,60.35,0,0,1,19.49,41.93,51.53,51.53,0,0,0-2.1-5.24,52.11,52.11,0,0,0-10.14-14.63A52.1,52.1,0,0,0,144,63.74a51.06,51.06,0,0,0-2.59-4.88" transform="translate(-40.48 -43.03)"/><path class="cls-2" d="M141.41,58.86a60.35,60.35,0,0,1,19.49,41.93,51.53,51.53,0,0,0-2.1-5.24,52.11,52.11,0,0,0-10.14-14.63A52.1,52.1,0,0,0,144,63.74,51.06,51.06,0,0,0,141.41,58.86Z" transform="translate(-40.48 -43.03)"/><path class="cls-1" d="M158.79,95.55a51.54,51.54,0,0,1,2.1,5.24A60.3,60.3,0,0,1,112,162.42l-11.39-24.48c1.49-.12,3-.29,4.47-.54h.06a34.8,34.8,0,0,0,7-1.68,52.34,52.34,0,0,0,36.49-54.79,52.09,52.09,0,0,1,10.14,14.63" transform="translate(-40.48 -43.03)"/><path class="cls-3" d="M89.33,70.19a52.3,52.3,0,0,1,59.33,10.73,52.34,52.34,0,0,1-36.49,54.79q1.54-.55,3.06-1.25A34.41,34.41,0,1,0,79.54,76.14v0a52.15,52.15,0,0,1,9.81-5.94" transform="translate(-40.48 -43.03)"/><rect class="cls-1" x="112.05" y="151.69" width="4.36" height="20.71" transform="translate(-98.15 20.23) rotate(-24.94)"/><rect class="cls-1" x="87.93" y="156.89" width="4.36" height="20.71" transform="translate(-102.6 10.55) rotate(-24.94)"/><path class="cls-1" d="M99.81,177.44a4.29,4.29,0,1,1-5.7-2.08,4.29,4.29,0,0,1,5.7,2.08" transform="translate(-40.48 -43.03)"/><path class="cls-1" d="M123.3,170.56a4.29,4.29,0,1,1-5.69-2.08,4.29,4.29,0,0,1,5.69,2.08" transform="translate(-40.48 -43.03)"/><path class="cls-3" d="M141.41,58.86A51.06,51.06,0,0,1,144,63.74a52.1,52.1,0,0,1,4.66,17.18,52.3,52.3,0,0,0-89.35,41.55,52.41,52.41,0,0,1-14.88-40.6,60.23,60.23,0,0,1,97-23" transform="translate(-40.48 -43.03)"/><path class="cls-3" d="M46.12,128.65a60,60,0,0,1-1.69-46.77,52.41,52.41,0,0,0,14.88,40.59,52.4,52.4,0,0,0,21.62,37.65,60,60,0,0,1-34.81-31.47" transform="translate(-40.48 -43.03)"/><path class="cls-1" d="M59.31,122.47A52.38,52.38,0,0,1,79.52,76.13v0a34.41,34.41,0,0,0-10,41.63l7.72,16.6a52.19,52.19,0,0,1-17.93-11.89" transform="translate(-40.48 -43.03)"/><path class="cls-1" d="M77.23,134.37l13.12,28.22a59.71,59.71,0,0,1-9.42-2.46,52.38,52.38,0,0,1-21.62-37.65,52.19,52.19,0,0,0,17.93,11.89" transform="translate(-40.48 -43.03)"/><path class="cls-3" d="M50.27,196.88a2.61,2.61,0,0,1,1,.21,2.69,2.69,0,0,1,.84.57,2.75,2.75,0,0,1,.57.85,2.57,2.57,0,0,1,.21,1V200a2.51,2.51,0,0,1-.21,1,2.91,2.91,0,0,1-.57.85,2.63,2.63,0,0,1-.84.58,2.61,2.61,0,0,1-1,.21h-4.4v3.51a.79.79,0,0,1-1.57,0v-5.08h6A1.09,1.09,0,0,0,51.36,200v-.48a1.07,1.07,0,0,0-.32-.79,1.05,1.05,0,0,0-.77-.32H44.38v-1.56Z" transform="translate(-40.48 -43.03)"/><path class="cls-3" d="M64,197a3,3,0,0,1,2.15.89,3.06,3.06,0,0,1,.65,1A3,3,0,0,1,67,200v4a3,3,0,0,1-.24,1.19,3.05,3.05,0,0,1-1.63,1.62A3,3,0,0,1,64,207H60a2.94,2.94,0,0,1-1.18-.24,3.08,3.08,0,0,1-1.62-1.62A3,3,0,0,1,57,204v-4a3,3,0,0,1,.23-1.18,3.06,3.06,0,0,1,1.62-1.63A3,3,0,0,1,60,197Zm-5.44,7a1.4,1.4,0,0,0,.12.57A1.53,1.53,0,0,0,59,205a1.48,1.48,0,0,0,.47.32,1.44,1.44,0,0,0,.57.11h4a1.43,1.43,0,0,0,.57-.11A1.48,1.48,0,0,0,65,205a1.53,1.53,0,0,0,.32-.47,1.41,1.41,0,0,0,.12-.57v-4a1.41,1.41,0,0,0-.12-.57A1.53,1.53,0,0,0,65,199a1.47,1.47,0,0,0-.47-.32,1.41,1.41,0,0,0-.57-.12H60a1.42,1.42,0,0,0-.57.12A1.47,1.47,0,0,0,59,199a1.53,1.53,0,0,0-.32.47,1.4,1.4,0,0,0-.12.57Z" transform="translate(-40.48 -43.03)"/><path class="cls-3" d="M77,196.88a2.61,2.61,0,0,1,1,.21,2.7,2.7,0,0,1,.84.57,2.73,2.73,0,0,1,.57.85,2.56,2.56,0,0,1,.21,1V200a2.49,2.49,0,0,1-.21,1,2.88,2.88,0,0,1-.57.85,2.64,2.64,0,0,1-.84.58,2.61,2.61,0,0,1-1,.21H72.6v3.51a.79.79,0,0,1-1.57,0v-5.08h6A1.09,1.09,0,0,0,78.09,200v-.48a1.07,1.07,0,0,0-.32-.79,1,1,0,0,0-.77-.32H71.11v-1.56Z" transform="translate(-40.48 -43.03)"/><path class="cls-3" d="M93,197.07a.78.78,0,0,1,.78.78v6.1a2.87,2.87,0,0,1-.24,1.18,3.28,3.28,0,0,1-.65,1,2.87,2.87,0,0,1-1,.66,3.06,3.06,0,0,1-1.18.23h-4a3,3,0,0,1-1.18-.23,3,3,0,0,1-1-.66,3.08,3.08,0,0,1-.65-1,3,3,0,0,1-.24-1.18v-6.1a.78.78,0,1,1,1.56,0v6.1a1.5,1.5,0,0,0,1.48,1.48h4a1.41,1.41,0,0,0,1-.44,1.44,1.44,0,0,0,.43-1v-6.1a.78.78,0,0,1,.78-.78Z" transform="translate(-40.48 -43.03)"/><path class="cls-3" d="M98.54,197.31a.79.79,0,0,1,.79.79v6.16a1.07,1.07,0,0,0,.32.79,1.05,1.05,0,0,0,.77.32h4.4a.79.79,0,1,1,0,1.58h-4.4a2.59,2.59,0,0,1-1.89-.79,2.91,2.91,0,0,1-.57-.86,2.52,2.52,0,0,1-.21-1V198.1a.79.79,0,0,1,.79-.79" transform="translate(-40.48 -43.03)"/><path class="cls-3" d="M118.18,197.68h0a.78.78,0,0,1-.78.78h-5.82a1.08,1.08,0,0,0-.78.32,1.06,1.06,0,0,0-.32.79V200a1,1,0,0,0,.32.77,1.07,1.07,0,0,0,.78.32h4.7a2.64,2.64,0,0,1,1,.21,2.8,2.8,0,0,1,.86.57,2.62,2.62,0,0,1,.58.85,2.59,2.59,0,0,1,.21,1v.48a2.63,2.63,0,0,1-.79,1.88,2.79,2.79,0,0,1-.86.57,2.62,2.62,0,0,1-1,.21h-5.8a.78.78,0,0,1,0-1.56h5.8a1.06,1.06,0,0,0,.79-.33,1.09,1.09,0,0,0,.32-.78v-.48a1.06,1.06,0,0,0-.32-.77,1.07,1.07,0,0,0-.79-.32h-4.7a2.63,2.63,0,0,1-1.89-.79,2.81,2.81,0,0,1-.57-.85,2.57,2.57,0,0,1-.21-1v-.48a2.63,2.63,0,0,1,.21-1,2.69,2.69,0,0,1,.57-.85,2.65,2.65,0,0,1,.85-.57,2.61,2.61,0,0,1,1-.21h5.82a.78.78,0,0,1,.78.78" transform="translate(-40.48 -43.03)"/><path class="cls-3" d="M130.07,198.45h-2.68v7.75a.78.78,0,1,1-1.56,0v-7.75h-2.68a.78.78,0,0,1,0-1.56h6.92a.78.78,0,0,1,0,1.56" transform="translate(-40.48 -43.03)"/><path class="cls-3" d="M139.74,203.06a1.21,1.21,0,1,1-1.21-1.21,1.21,1.21,0,0,1,1.21,1.21" transform="translate(-40.48 -43.03)"/><path class="cls-3" d="M156.35,197a.78.78,0,0,1,.78.78v2.88a2.88,2.88,0,0,1-.25,1.19,3.25,3.25,0,0,1-.65,1,2.94,2.94,0,0,1-1,.65,3.06,3.06,0,0,1-1.18.23h-1.19v2.51a.78.78,0,1,1-1.57,0v-2.51h-1.2a3,3,0,0,1-1.19-.23,3.12,3.12,0,0,1-1-.65,3,3,0,0,1-.65-1,3,3,0,0,1-.23-1.19v-2.88a.78.78,0,1,1,1.57,0v2.88a1.48,1.48,0,0,0,1.48,1.48h4a1.46,1.46,0,0,0,1.48-1.48v-2.88a.78.78,0,0,1,.78-.78Z" transform="translate(-40.48 -43.03)"/><rect class="cls-3" x="3.81" y="153.85" width="1.57" height="5.8"/><rect class="cls-3" x="30.54" y="153.85" width="1.57" height="5.8"/><path class="cls-3" d="M133.13,206.94h0a.78.78,0,0,1-.41-1l3.26-7.53a2.78,2.78,0,0,1,2.55-1.68h0a2.78,2.78,0,0,1,2.55,1.68l3.25,7.53a.78.78,0,1,1-1.44.62L139.64,199a1.19,1.19,0,0,0-1.11-.73h0a1.18,1.18,0,0,0-1.11.73l-3.25,7.53a.78.78,0,0,1-1,.41" transform="translate(-40.48 -43.03)"/></svg>