<svg id="Layer_1" data-name="Layer 1" xmlns="http://www.w3.org/2000/svg" viewBox="0 0 119.33 164.88"><defs><style>.cls-1{fill:#fff;}</style></defs><title>logo_white</title><path class="cls-1" d="M116.22,95.69a14.92,14.92,0,1,1-19.83-7.24,14.92,14.92,0,0,1,19.83,7.24" transform="translate(-43.01 -42.33)"/><path class="cls-1" d="M104.75,138.4q1.31-.15,2.56-.36h.07a36.84,36.84,0,0,0,7.41-1.77,55.14,55.14,0,0,0,6.69-2.59,54.45,54.45,0,0,0,28-68.76A59.69,59.69,0,0,1,115,160.36Z" transform="translate(-43.01 -42.33)"/><rect class="cls-1" x="115.78" y="151.1" width="4.42" height="21" transform="translate(-100.15 22.49) rotate(-24.94)"/><rect class="cls-1" x="88.13" y="156.38" width="4.42" height="21" transform="translate(-104.96 11.33) rotate(-24.94)"/><path class="cls-1" d="M100.17,177.22a4.35,4.35,0,1,1-5.78-2.11,4.35,4.35,0,0,1,5.78,2.11" transform="translate(-43.01 -42.33)"/><path class="cls-1" d="M127.19,170.25a4.35,4.35,0,1,1-5.78-2.11,4.35,4.35,0,0,1,5.78,2.11" transform="translate(-43.01 -42.33)"/><path class="cls-1" d="M74.46,154.54a59.65,59.65,0,1,1,68.38-96.67,50.7,50.7,0,0,1,2.45,4.64,51.55,51.55,0,0,1-13.31,61,36.53,36.53,0,0,0,4.84-9.07,36.1,36.1,0,0,0-1.19-27.79,36.48,36.48,0,0,0-33-21A36,36,0,0,0,87.37,69a36.54,36.54,0,0,0-6,3.52h0l-1,.78a54.85,54.85,0,0,0-21.06,48.29,54.62,54.62,0,0,0,15.21,32.93" transform="translate(-43.01 -42.33)"/><path class="cls-1" d="M89.68,160.19a58.93,58.93,0,0,1-6.39-1.81,51.5,51.5,0,0,1-16.06-64.6,36.3,36.3,0,0,0,2.51,23.53Z" transform="translate(-43.01 -42.33)"/><path class="cls-1" d="M51.52,196.94a2.66,2.66,0,0,1,1.06.21A2.73,2.73,0,0,1,54,198.6a2.58,2.58,0,0,1,.22,1.05v.48a2.52,2.52,0,0,1-.22,1,2.91,2.91,0,0,1-.58.86,2.69,2.69,0,0,1-.86.59,2.66,2.66,0,0,1-1.06.21H47.06v3.56a.8.8,0,0,1-1.6,0v-5.16h6.06a1.11,1.11,0,0,0,1.11-1.11v-.48a1.08,1.08,0,0,0-.32-.8,1.07,1.07,0,0,0-.78-.32h-6v-1.58Z" transform="translate(-43.01 -42.33)"/><path class="cls-1" d="M65.4,197a3.06,3.06,0,0,1,2.18.9,3.11,3.11,0,0,1,.66,1,3.06,3.06,0,0,1,.24,1.2v4a3,3,0,0,1-.24,1.2A3.1,3.1,0,0,1,66.59,207a3,3,0,0,1-1.19.24h-4a3,3,0,0,1-1.2-.24,3.11,3.11,0,0,1-1.64-1.64,3,3,0,0,1-.24-1.2v-4a3,3,0,0,1,.24-1.2,3.12,3.12,0,0,1,.66-1,3,3,0,0,1,2.18-.9Zm-5.52,7.1a1.42,1.42,0,0,0,.12.58,1.5,1.5,0,0,0,.8.8,1.46,1.46,0,0,0,.57.12h4a1.44,1.44,0,0,0,.58-.12,1.54,1.54,0,0,0,.48-.32,1.59,1.59,0,0,0,.32-.48,1.44,1.44,0,0,0,.12-.58v-4a1.44,1.44,0,0,0-.12-.58,1.59,1.59,0,0,0-.32-.48,1.5,1.5,0,0,0-.48-.32,1.44,1.44,0,0,0-.58-.12h-4a1.46,1.46,0,0,0-.57.12,1.48,1.48,0,0,0-.48.32,1.52,1.52,0,0,0-.32.48,1.42,1.42,0,0,0-.12.58Z" transform="translate(-43.01 -42.33)"/><path class="cls-1" d="M78.63,196.94a2.66,2.66,0,0,1,1.06.21,2.73,2.73,0,0,1,.86.58,2.78,2.78,0,0,1,.58.86,2.6,2.6,0,0,1,.22,1.05v.48a2.54,2.54,0,0,1-.22,1,3,3,0,0,1-.58.86,2.7,2.7,0,0,1-.86.59,2.66,2.66,0,0,1-1.06.21H74.17v3.56a.8.8,0,0,1-1.6,0v-5.16h6.06a1.11,1.11,0,0,0,1.11-1.11v-.48a1.09,1.09,0,0,0-.32-.8,1.07,1.07,0,0,0-.78-.32h-6v-1.58Z" transform="translate(-43.01 -42.33)"/><path class="cls-1" d="M94.82,197.14a.79.79,0,0,1,.79.79v6.19a2.92,2.92,0,0,1-.25,1.2,3.33,3.33,0,0,1-.66,1,2.9,2.9,0,0,1-1,.67,3.13,3.13,0,0,1-1.2.24h-4a3,3,0,0,1-2.18-.9,3.12,3.12,0,0,1-.66-1,3,3,0,0,1-.24-1.2v-6.19a.79.79,0,0,1,1.58,0v6.19a1.52,1.52,0,0,0,1.5,1.51h4a1.43,1.43,0,0,0,1.06-.45,1.46,1.46,0,0,0,.44-1.06v-6.19a.79.79,0,0,1,.79-.79Z" transform="translate(-43.01 -42.33)"/><path class="cls-1" d="M100.48,197.38a.8.8,0,0,1,.8.8v6.25a1.08,1.08,0,0,0,.32.8,1.07,1.07,0,0,0,.78.32h4.46a.8.8,0,1,1,0,1.61h-4.46a2.62,2.62,0,0,1-1.91-.8,2.91,2.91,0,0,1-.58-.87,2.57,2.57,0,0,1-.22-1.06v-6.25a.8.8,0,0,1,.8-.8" transform="translate(-43.01 -42.33)"/><path class="cls-1" d="M120.4,197.76h0a.79.79,0,0,1-.79.79h-5.9a1.09,1.09,0,0,0-.79.32,1.07,1.07,0,0,0-.33.8v.48a1.06,1.06,0,0,0,.33.78,1.09,1.09,0,0,0,.79.32h4.76a2.66,2.66,0,0,1,1.06.21,2.83,2.83,0,0,1,.87.58,2.66,2.66,0,0,1,.59.86,2.63,2.63,0,0,1,.21,1.05v.48a2.67,2.67,0,0,1-.8,1.91,2.81,2.81,0,0,1-.87.58,2.66,2.66,0,0,1-1.06.21h-5.89a.79.79,0,0,1,0-1.58h5.89a1.07,1.07,0,0,0,.8-.33,1.11,1.11,0,0,0,.32-.79V204a1.07,1.07,0,0,0-.32-.78,1.09,1.09,0,0,0-.8-.32H113.7a2.64,2.64,0,0,1-1.06-.21,2.59,2.59,0,0,1-.86-.59,2.85,2.85,0,0,1-.58-.86,2.61,2.61,0,0,1-.21-1v-.48a2.68,2.68,0,0,1,.21-1.05,2.75,2.75,0,0,1,.58-.86,2.72,2.72,0,0,1,1.92-.79h5.9a.79.79,0,0,1,.79.79" transform="translate(-43.01 -42.33)"/><path class="cls-1" d="M132.47,198.53h-2.72v7.87a.79.79,0,0,1-1.58,0v-7.87h-2.72a.79.79,0,1,1,0-1.58h7a.79.79,0,0,1,0,1.58" transform="translate(-43.01 -42.33)"/><path class="cls-1" d="M142.27,203.21A1.22,1.22,0,1,1,141,202a1.22,1.22,0,0,1,1.22,1.23" transform="translate(-43.01 -42.33)"/><path class="cls-1" d="M159.12,197a.79.79,0,0,1,.79.79v2.92a2.94,2.94,0,0,1-.25,1.21,3.3,3.3,0,0,1-.67,1,3,3,0,0,1-1,.66,3.1,3.1,0,0,1-1.2.24H155.6v2.55a.79.79,0,1,1-1.59,0v-2.55h-1.22a3,3,0,0,1-1.2-.24,3.18,3.18,0,0,1-1-.66,3,3,0,0,1-.66-1,3.06,3.06,0,0,1-.24-1.21v-2.92a.79.79,0,0,1,1.59,0v2.92a1.5,1.5,0,0,0,1.5,1.5h4a1.48,1.48,0,0,0,1.5-1.5v-2.92a.79.79,0,0,1,.79-.79Z" transform="translate(-43.01 -42.33)"/><rect class="cls-1" x="2.45" y="154.61" width="1.6" height="5.89"/><rect class="cls-1" x="29.57" y="154.61" width="1.6" height="5.89"/><path class="cls-1" d="M135.57,207.15h0a.79.79,0,0,1-.41-1l3.3-7.64a2.82,2.82,0,0,1,2.59-1.7h0a2.82,2.82,0,0,1,2.59,1.7l3.3,7.63a.8.8,0,0,1-1.46.63l-3.3-7.63a1.2,1.2,0,0,0-1.13-.74h0a1.2,1.2,0,0,0-1.13.74l-3.3,7.63a.8.8,0,0,1-1,.41" transform="translate(-43.01 -42.33)"/></svg>